<?xml version="1.0" encoding="UTF-8" standalone="no"?><!DOCTYPE svg PUBLIC "-//W3C//DTD SVG 1.1//EN" "http://www.w3.org/Graphics/SVG/1.1/DTD/svg11.dtd"><svg width="100%" height="100%" viewBox="0 0 313 24" version="1.1" xmlns="http://www.w3.org/2000/svg" xmlns:xlink="http://www.w3.org/1999/xlink" xml:space="preserve" xmlns:serif="http://www.serif.com/" style="fill-rule:evenodd;clip-rule:evenodd;stroke-linejoin:round;stroke-miterlimit:2;"><rect id="logo_web" x="0" y="0" width="313" height="24" style="fill:none;"/><clipPath id="_clip1"><rect id="logo_web1" serif:id="logo_web" x="0" y="0" width="313" height="24"/></clipPath><g clip-path="url(#_clip1)"><g><path d="M-0,24l19.782,-19.782c2.701,-2.701 6.364,-4.218 10.183,-4.218l45.235,0l-9.6,9.6l-35.635,-0c-1.273,-0 -2.494,0.506 -3.394,1.406l-12.995,12.994l-13.576,-0Zm19.588,-1.6l8.663,-8.663c0.6,-0.6 1.414,-0.937 2.263,-0.937l29.086,-0c-0,-0 -4.415,4.415 -7.257,7.257c-1.5,1.5 -3.535,2.343 -5.657,2.343c-7.883,-0 -27.098,-0 -27.098,-0Zm47.418,1.6l14.4,-14.4l-11.212,-0l9.6,-9.6l13.2,0c1.941,0 3.692,1.169 4.435,2.963c0.743,1.794 0.332,3.858 -1.041,5.231l-15.806,15.806l-13.576,-0Z" style="fill:#fff;"/><path d="M85.612,24l19.782,-19.782c2.701,-2.701 6.363,-4.218 10.182,-4.218l32.824,0l-9.6,9.6l-23.224,-0c-1.273,-0 -2.493,0.506 -3.394,1.406l-12.994,12.994l-13.576,-0Zm69.588,-12.8l-3.2,3.2l18.812,-0l5.188,-5.188l-19.2,-0.012c-0,-0 2.839,-2.839 5.363,-5.363c2.457,-2.457 5.789,-3.837 9.263,-3.837c5.059,0 11.828,0 11.828,0c2.574,0.032 5.229,1.415 6.199,3.799c0.971,2.385 0.418,5.118 -1.402,6.938l-13.263,13.263l-33.988,-0c-1.941,-0 -3.692,-1.169 -4.435,-2.963c-0.743,-1.794 -0.332,-3.858 1.041,-5.231l2.602,-2.603c1.283,-1.282 3.023,-2.003 4.837,-2.003l10.355,0Zm72.8,3.2l-9.6,9.6l-27.2,-0c-1.941,-0 -3.692,-1.169 -4.435,-2.963c-0.743,-1.794 -0.332,-3.858 1.041,-5.231l11.588,-11.588c2.701,-2.701 6.363,-4.218 10.183,-4.218l32.823,0l-9.6,9.6l-23.223,-0c-1.274,-0 -2.494,0.506 -3.395,1.406l-3.394,3.394l25.212,-0Zm43.647,-0l-6.788,6.788c-1.8,1.801 -4.242,2.812 -6.788,2.812l-22.871,-0c-1.941,-0 -3.692,-1.169 -4.434,-2.963c-0.743,-1.794 -0.333,-3.858 1.04,-5.231l11.588,-11.588c2.701,-2.701 6.363,-4.218 10.183,-4.218l27.282,0c1.942,-0 3.692,1.169 4.435,2.963c0.743,1.794 0.332,3.858 -1.041,5.231l-1.794,1.794c-1.8,1.801 -4.242,2.812 -6.788,2.812l-8.824,-0l3.2,-3.2l-16.47,-0c-1.273,-0 -2.494,0.506 -3.395,1.406l-3.394,3.394l24.859,-0Z" style="fill:#e6001f;"/><rect x="288.962" y="5.652" width="2.736" height="2.388" style="fill:#e10600;fill-rule:nonzero;"/><path d="M292.382,8.04l0,-8.04l2.736,0l1.848,3.048l0.168,0l0,-3.048l2.784,0l0,8.04l-2.748,0l-1.824,-3.276l-0.18,0l0,3.276l-2.784,0Z" style="fill:#e10600;fill-rule:nonzero;"/><path d="M300.638,8.04l0,-8.04l6.024,0l0,2.22l-3.24,0l0,0.684l2.52,0l0,2.196l-2.52,0l0,0.72l3.24,0l0,2.22l-6.024,0Z" style="fill:#e10600;fill-rule:nonzero;"/><path d="M306.974,2.268l0,-2.268l6,0l0,2.268l-1.56,0l0,5.772l-2.784,0l0,-5.772l-1.656,0Z" style="fill:#e10600;fill-rule:nonzero;"/></g></g></svg>